<svg xmlns="http://www.w3.org/2000/svg" version="1.1" xmlns:xlink="http://www.w3.org/1999/xlink" xmlns:svgjs="http://svgjs.dev/svgjs" id="BgenPttrnSvgRootPreview" width="100%" height="100%"><defs><pattern x="0" y="0" width="1" height="1" patternUnits="userSpaceOnUse" id="BgenPttrnLayer1"><g id="PatternRootContent1"><g id="BgenPttrnLayer1background"><rect width="1" height="1" id="BgenPttrnBackground1" class="color_1 fill_color_1" fill="#faebd7"></rect></g></g></pattern><pattern x="0" y="0" width="50" height="68" patternUnits="userSpaceOnUse" id="BgenPttrnLayer2" patternTransform="matrix(0.54,0,0,0.54,0,0)"><g id="PatternRootContent2"><g id="BgenPttrnLayer2Element3"><use xlink:href="#BgenPttrnElement3" x="35.125" y="-49" transform="translate(50, -17) scale(1) translate(-50, 17) rotate(90, 50, -17)"></use><use xlink:href="#BgenPttrnElement3" x="-14.875" y="-49" transform="translate(0, -17) scale(1) translate(0, 17) rotate(90, 0, -17)"></use><use xlink:href="#BgenPttrnElement3" x="10.125" y="-15" transform="translate(25, 17) scale(1) translate(-25, -17) rotate(90, 25, 17)"></use><use xlink:href="#BgenPttrnElement3" x="-39.875" y="-15" transform="translate(-25, 17) scale(1) translate(25, -17) rotate(90, -25, 17)"></use><use xlink:href="#BgenPttrnElement3" x="60.125" y="-15" transform="translate(75, 17) scale(1) translate(-75, -17) rotate(90, 75, 17)"></use><use xlink:href="#BgenPttrnElement3" x="35.125" y="19" transform="translate(50, 51) scale(1) translate(-50, -51) rotate(90, 50, 51)"></use><use xlink:href="#BgenPttrnElement3" x="-14.875" y="19" transform="translate(0, 51) scale(1) translate(0, -51) rotate(90, 0, 51)"></use><use xlink:href="#BgenPttrnElement3" x="10.125" y="53" transform="translate(25, 85) scale(1) translate(-25, -85) rotate(90, 25, 85)"></use><use xlink:href="#BgenPttrnElement3" x="10.125" y="53" transform="translate(25, 85) scale(1) translate(-25, -85) rotate(90, 25, 85)"></use></g></g></pattern><symbol id="BgenPttrnElement0"><polygon points="10.5,1 29.5,19.999 10.5,39 21.126,19.999"></polygon></symbol><symbol id="BgenPttrnElement3"><g class="color_4 fill_color_4" fill="#dbb88c"><path d="M0.5,35.5L10,44.9995002746582L0.5,54.5L5.813,44.9995002746582Z" transform="matrix(1,0,0,1,0,0)"></path><path d="M10.75,26L29.75,44.999000549316406L10.75,64L21.376,44.999000549316406Z" transform="matrix(1,0,0,1,0,0)"></path><path d="M29.25,28.5L19.75,19.000499725341797L29.25,9.5L23.937,19.000499725341797Z" transform="matrix(1,0,0,1,0,0)"></path><path d="M19,38L0,19.000999450683594L19,-7.105427357601002e-15L8.374,19.000999450683594Z" transform="matrix(1,0,0,1,0,0)"></path></g></symbol></defs><rect width="100%" height="100%" id="BgenPttrnRctLayer1" fill="url(&quot;#BgenPttrnLayer1&quot;)"></rect><rect width="100%" height="100%" id="BgenPttrnRctLayer2" fill="url(&quot;#BgenPttrnLayer2&quot;)"></rect></svg>